<svg xmlns="http://www.w3.org/2000/svg" width="98.153" height="100.814" viewBox="0 0 98.153 100.814"><g transform="translate(-73 -250.426)"><path d="M393.214,676.192c.3,0,5.528-6.469,5.528-6.469h-5.826Z" transform="translate(-227.588 -351)"/><path d="M398.443,676.192c-.3,0-5.528-6.469-5.528-6.469h5.826Z" transform="translate(-319.588 -351)"/><path d="M350.11,606.208l43.285,24.47v50.35l-43.83,24.845L306.3,681.028v-50.35Z" transform="translate(-227.551 -355.208)" fill="none" stroke="#000" stroke-width="1"/><path d="M345.153,606.208l38.387,21.7v44.653L344.67,694.6,306.3,672.562V627.909Z" transform="translate(-222.624 -349.57)" fill="none" stroke="#000" stroke-width="3"/><rect width="98" height="36" transform="translate(73 283)" fill="#da292a"/><text transform="translate(110 309)" fill="#fff" font-size="21" font-family="Impact" letter-spacing="0.061em"><tspan x="0" y="0">CS</tspan></text><path d="M333.773,630.52v-4.907l-11.023,2.643Z" transform="translate(-228.741 -351.775)"/><path d="M322.75,630.52v-4.907l11.023,2.643Z" transform="translate(-182.741 -351.775)"/><g transform="translate(107.955 265.139) rotate(-7)"><path d="M29.624-415.369a2.287,2.287,0,0,1,1.53,1.081c.135.211.357.524.492.692a2.993,2.993,0,0,1,.633.968,4.351,4.351,0,0,0,.259.524c.065.113.227.4.351.643a4.4,4.4,0,0,0,.492.741,1.82,1.82,0,0,1,.47,1.2,1.088,1.088,0,0,1-.406.584c-.205.119-.638.043-2.065-.352a2.117,2.117,0,0,0-1.416.092,3.167,3.167,0,0,0-1.692,1.125l-.708.708-.281.778c-.157.433-.357,1.038-.443,1.352a2.207,2.207,0,0,1-.805,1.427,5,5,0,0,0-.606.724,3.657,3.657,0,0,0-.086.751,2.081,2.081,0,0,0,.059.865,1.529,1.529,0,0,1-.027,1.049,4.294,4.294,0,0,0-.141.838,2.912,2.912,0,0,0,.286,1.492,1.758,1.758,0,0,1,.065.54l-.016.292-.313.016a.786.786,0,0,1-.5-.1c-.243-.151-.292-.254-.292-.611a1.806,1.806,0,0,0-.059-.465,1,1,0,0,1,0-.513,7.5,7.5,0,0,0,.011-2.384c-.13-.8-.205-1.108-.27-1.108a5.01,5.01,0,0,0-.324,1.341,1.531,1.531,0,0,0,.027.676c.108.4.1.47-.119,1.135a4.767,4.767,0,0,0-.265,1.687c.022.086.092.346.162.568a4.732,4.732,0,0,1,.162.795c.032.368.027.389-.092.427a1.553,1.553,0,0,1-.719-.032c-.254-.1-.379-.4-.389-.946-.005-.27-.016-.546-.022-.622s.027-.513.076-.973a5.136,5.136,0,0,0,.038-1.216c-.032-.211-.076-.719-.1-1.135s-.076-.914-.108-1.108a7.312,7.312,0,0,0-.546-1.622l-.1-.124-.8.092-1.076.119a17.782,17.782,0,0,1-2.784-.195,2.494,2.494,0,0,0-1.314.005c-.254.065-.362.281-.362.7a5.971,5.971,0,0,1-.086.784,5.759,5.759,0,0,0-.065,1.141,1.6,1.6,0,0,0,.2.989,1.427,1.427,0,0,1,.189.611c.005.34-.086.416-.535.416h-.335l-.1-.314c-.054-.168-.13-.411-.168-.535a1.634,1.634,0,0,1-.038-.524,6.705,6.705,0,0,0-.205-1.773,1.888,1.888,0,0,1,.038-1.287,2.215,2.215,0,0,0,.114-.568.519.519,0,0,0-.254-.141l-.222-.065-.27.265a3.979,3.979,0,0,0-.811,1.427,5.38,5.38,0,0,0-.141,1.757,5.868,5.868,0,0,0,.086,1.849,1.824,1.824,0,0,1,.07.973.783.783,0,0,1-.546.178.507.507,0,0,1-.368-.151c-.162-.135-.178-.184-.254-.757a2.053,2.053,0,0,1,0-.973,4.738,4.738,0,0,0,.022-1.524l-.065-1.162.178-.649a8.874,8.874,0,0,0,.162-2.946l-.022-.838.46-1.216c.5-1.3.562-1.524.5-1.779-.032-.141-.076-.173-.368-.27a4.317,4.317,0,0,0-.9-.146,1.354,1.354,0,0,0-1.335.46c-.53.449-.562.373-.162-.346a1.662,1.662,0,0,1,.768-.822.936.936,0,0,1,.67-.108c.406.032.416.038,1.325.513l.265.141.33-.124a4.272,4.272,0,0,1,1.86-.492,21.916,21.916,0,0,1,2.741.27c.357.054.9.13,1.216.162a2.89,2.89,0,0,0,1.433-.135c.476-.113,1.119-.276,1.427-.362a9.472,9.472,0,0,1,3.276-.313,1.984,1.984,0,0,0,.924-.022,5.464,5.464,0,0,0,1.87-.676c.5-.324.908-.8.908-1.06a2.087,2.087,0,0,0-.5-1.033,4.056,4.056,0,0,0-.935-.616,1.081,1.081,0,0,1-.513-.406c0-.108.065-.1.665.054a3.524,3.524,0,0,1,1.411.638,2.622,2.622,0,0,0,.892.5,1.814,1.814,0,0,0-.189-.443,1.576,1.576,0,0,0-.633-.735C28.883-415.472,28.921-415.558,29.624-415.369Z" transform="translate(-9.988 415.463)"/></g><text transform="translate(107 329)" font-size="8" font-family="Haettenschweiler" letter-spacing="0.061em"><tspan x="0" y="0">carneshop</tspan></text></g></svg>